<?xml version="1.0" encoding="UTF-8" ?>
<svg version="1.1" width="64" height="64" xmlns="http://www.w3.org/2000/svg" shape-rendering="crispEdges">
<rect x="0" y="0" width="1" height="1" fill="#CBDBFC" />
<rect x="1" y="0" width="13" height="3" fill="#FFFFFF" />
<rect x="14" y="0" width="3" height="1" fill="#CBDBFC" />
<rect x="17" y="0" width="12" height="3" fill="#FFFFFF" />
<rect x="29" y="0" width="3" height="1" fill="#CBDBFC" />
<rect x="32" y="0" width="32" height="1" fill="#5B6EE1" />
<rect x="0" y="1" width="1" height="10" fill="#FFFFFF" />
<rect x="14" y="1" width="3" height="11" fill="#FFFFFF" />
<rect x="29" y="1" width="3" height="10" fill="#FFFFFF" />
<rect x="32" y="1" width="28" height="1" fill="#5B6EE1" />
<rect x="60" y="1" width="3" height="1" fill="#639BFF" />
<rect x="63" y="1" width="1" height="5" fill="#5B6EE1" />
<rect x="32" y="2" width="2" height="4" fill="#5B6EE1" />
<rect x="34" y="2" width="4" height="1" fill="#639BFF" />
<rect x="38" y="2" width="25" height="2" fill="#5B6EE1" />
<rect x="1" y="3" width="2" height="8" fill="#FFFFFF" />
<rect x="3" y="3" width="4" height="1" fill="#CBDBFC" />
<rect x="7" y="3" width="7" height="4" fill="#FFFFFF" />
<rect x="17" y="3" width="7" height="4" fill="#FFFFFF" />
<rect x="24" y="3" width="3" height="1" fill="#CBDBFC" />
<rect x="27" y="3" width="2" height="29" fill="#FFFFFF" />
<rect x="34" y="3" width="4" height="3" fill="#5B6EE1" />
<rect x="3" y="4" width="4" height="11" fill="#FFFFFF" />
<rect x="24" y="4" width="3" height="6" fill="#FFFFFF" />
<rect x="38" y="4" width="7" height="7" fill="#5B6EE1" />
<rect x="45" y="4" width="4" height="1" fill="#639BFF" />
<rect x="49" y="4" width="14" height="2" fill="#5B6EE1" />
<rect x="45" y="5" width="4" height="12" fill="#5B6EE1" />
<rect x="32" y="6" width="3" height="1" fill="#639BFF" />
<rect x="35" y="6" width="3" height="24" fill="#5B6EE1" />
<rect x="49" y="6" width="5" height="5" fill="#5B6EE1" />
<rect x="54" y="6" width="3" height="1" fill="#639BFF" />
<rect x="57" y="6" width="6" height="8" fill="#5B6EE1" />
<rect x="63" y="6" width="1" height="1" fill="#639BFF" />
<rect x="7" y="7" width="2" height="1" fill="#CBDBFC" />
<rect x="9" y="7" width="5" height="10" fill="#FFFFFF" />
<rect x="17" y="7" width="4" height="1" fill="#CBDBFC" />
<rect x="21" y="7" width="3" height="3" fill="#FFFFFF" />
<rect x="32" y="7" width="3" height="13" fill="#5B6EE1" />
<rect x="54" y="7" width="3" height="15" fill="#5B6EE1" />
<rect x="63" y="7" width="1" height="13" fill="#5B6EE1" />
<rect x="7" y="8" width="2" height="7" fill="#FFFFFF" />
<rect x="17" y="8" width="4" height="22" fill="#FFFFFF" />
<rect x="21" y="10" width="2" height="8" fill="#FFFFFF" />
<rect x="23" y="10" width="4" height="1" fill="#CBDBFC" />
<rect x="0" y="11" width="3" height="1" fill="#CBDBFC" />
<rect x="23" y="11" width="4" height="7" fill="#FFFFFF" />
<rect x="29" y="11" width="2" height="12" fill="#FFFFFF" />
<rect x="31" y="11" width="1" height="1" fill="#CBDBFC" />
<rect x="38" y="11" width="3" height="1" fill="#639BFF" />
<rect x="41" y="11" width="4" height="11" fill="#5B6EE1" />
<rect x="49" y="11" width="4" height="1" fill="#639BFF" />
<rect x="53" y="11" width="1" height="11" fill="#5B6EE1" />
<rect x="0" y="12" width="3" height="11" fill="#FFFFFF" />
<rect x="14" y="12" width="3" height="1" fill="#CBDBFC" />
<rect x="31" y="12" width="1" height="11" fill="#FFFFFF" />
<rect x="38" y="12" width="3" height="15" fill="#5B6EE1" />
<rect x="49" y="12" width="4" height="18" fill="#5B6EE1" />
<rect x="14" y="13" width="3" height="4" fill="#FFFFFF" />
<rect x="57" y="14" width="2" height="17" fill="#5B6EE1" />
<rect x="59" y="14" width="4" height="1" fill="#639BFF" />
<rect x="3" y="15" width="1" height="13" fill="#FFFFFF" />
<rect x="4" y="15" width="4" height="1" fill="#CBDBFC" />
<rect x="8" y="15" width="1" height="16" fill="#FFFFFF" />
<rect x="59" y="15" width="4" height="11" fill="#5B6EE1" />
<rect x="4" y="16" width="4" height="4" fill="#FFFFFF" />
<rect x="9" y="17" width="3" height="15" fill="#FFFFFF" />
<rect x="12" y="17" width="3" height="1" fill="#CBDBFC" />
<rect x="15" y="17" width="2" height="15" fill="#FFFFFF" />
<rect x="45" y="17" width="3" height="1" fill="#639BFF" />
<rect x="48" y="17" width="1" height="13" fill="#5B6EE1" />
<rect x="12" y="18" width="3" height="7" fill="#FFFFFF" />
<rect x="21" y="18" width="1" height="12" fill="#FFFFFF" />
<rect x="22" y="18" width="4" height="1" fill="#CBDBFC" />
<rect x="26" y="18" width="1" height="14" fill="#FFFFFF" />
<rect x="45" y="18" width="3" height="14" fill="#5B6EE1" />
<rect x="22" y="19" width="4" height="3" fill="#FFFFFF" />
<rect x="4" y="20" width="3" height="1" fill="#CBDBFC" />
<rect x="7" y="20" width="1" height="11" fill="#FFFFFF" />
<rect x="32" y="20" width="3" height="1" fill="#639BFF" />
<rect x="63" y="20" width="1" height="1" fill="#639BFF" />
<rect x="4" y="21" width="3" height="7" fill="#FFFFFF" />
<rect x="32" y="21" width="3" height="5" fill="#5B6EE1" />
<rect x="63" y="21" width="1" height="5" fill="#5B6EE1" />
<rect x="22" y="22" width="1" height="10" fill="#FFFFFF" />
<rect x="23" y="22" width="3" height="1" fill="#CBDBFC" />
<rect x="41" y="22" width="1" height="10" fill="#5B6EE1" />
<rect x="42" y="22" width="3" height="1" fill="#639BFF" />
<rect x="53" y="22" width="3" height="1" fill="#639BFF" />
<rect x="56" y="22" width="1" height="10" fill="#5B6EE1" />
<rect x="0" y="23" width="2" height="1" fill="#CBDBFC" />
<rect x="2" y="23" width="1" height="9" fill="#FFFFFF" />
<rect x="23" y="23" width="3" height="9" fill="#FFFFFF" />
<rect x="29" y="23" width="1" height="9" fill="#FFFFFF" />
<rect x="30" y="23" width="2" height="1" fill="#CBDBFC" />
<rect x="42" y="23" width="3" height="9" fill="#5B6EE1" />
<rect x="53" y="23" width="3" height="9" fill="#5B6EE1" />
<rect x="0" y="24" width="2" height="6" fill="#FFFFFF" />
<rect x="30" y="24" width="2" height="6" fill="#FFFFFF" />
<rect x="12" y="25" width="3" height="1" fill="#CBDBFC" />
<rect x="12" y="26" width="3" height="6" fill="#FFFFFF" />
<rect x="32" y="26" width="2" height="1" fill="#639BFF" />
<rect x="34" y="26" width="1" height="6" fill="#5B6EE1" />
<rect x="59" y="26" width="2" height="5" fill="#5B6EE1" />
<rect x="61" y="26" width="3" height="1" fill="#639BFF" />
<rect x="32" y="27" width="2" height="5" fill="#5B6EE1" />
<rect x="38" y="27" width="2" height="1" fill="#639BFF" />
<rect x="40" y="27" width="1" height="5" fill="#5B6EE1" />
<rect x="61" y="27" width="3" height="5" fill="#5B6EE1" />
<rect x="3" y="28" width="3" height="1" fill="#CBDBFC" />
<rect x="6" y="28" width="1" height="4" fill="#FFFFFF" />
<rect x="38" y="28" width="2" height="2" fill="#5B6EE1" />
<rect x="3" y="29" width="3" height="3" fill="#FFFFFF" />
<rect x="0" y="30" width="1" height="1" fill="#CBDBFC" />
<rect x="1" y="30" width="1" height="2" fill="#FFFFFF" />
<rect x="17" y="30" width="2" height="2" fill="#FFFFFF" />
<rect x="19" y="30" width="3" height="1" fill="#CBDBFC" />
<rect x="30" y="30" width="2" height="1" fill="#CBDBFC" />
<rect x="35" y="30" width="4" height="1" fill="#639BFF" />
<rect x="39" y="30" width="1" height="2" fill="#5B6EE1" />
<rect x="48" y="30" width="4" height="1" fill="#639BFF" />
<rect x="52" y="30" width="1" height="2" fill="#5B6EE1" />
<rect x="0" y="31" width="1" height="1" fill="#FFFFFF" />
<rect x="7" y="31" width="2" height="1" fill="#CBDBFC" />
<rect x="19" y="31" width="3" height="1" fill="#FFFFFF" />
<rect x="30" y="31" width="2" height="1" fill="#FFFFFF" />
<rect x="35" y="31" width="4" height="1" fill="#5B6EE1" />
<rect x="48" y="31" width="4" height="1" fill="#5B6EE1" />
<rect x="57" y="31" width="1" height="1" fill="#5B6EE1" />
<rect x="58" y="31" width="2" height="1" fill="#639BFF" />
<rect x="60" y="31" width="1" height="1" fill="#5B6EE1" />
</svg>